<?xml version="1.0" standalone="no"?><!DOCTYPE svg PUBLIC "-//W3C//DTD SVG 1.1//EN" "http://www.w3.org/Graphics/SVG/1.1/DTD/svg11.dtd"><svg class="icon" width="40px" height="40.00px" viewBox="0 0 1024 1024" version="1.1" xmlns="http://www.w3.org/2000/svg"><path fill="black" d="M512 508.7V523v-14.3zM511.7 463.1c-12.6 0-24.3-8-28.5-20.5-5.2-15.7 3.3-32.7 19-37.9 41.9-13.9 70-53 70-97.1 0-56.4-45.9-102.3-102.3-102.3s-102.3 45.9-102.3 102.3c0 16.6-13.4 30-30 30s-30-13.4-30-30c0-89.5 72.8-162.3 162.3-162.3S632.3 218 632.3 307.5c0 70.1-44.7 132-111.1 154.1-3.1 1-6.3 1.5-9.5 1.5zM511 532.8c-16.6 0-30-13.4-30-30v-66c0-16.6 13.4-30 30-30s30 13.4 30 30v66c0 16.6-13.4 30-30 30zM857.7 879H166.3c-47.5 0-87.2-26.7-98.7-66.3-4.9-16.8-4-34.2 2.5-50.2 6.6-16.3 18.9-30.5 35.6-41.1L496 473.5c9.8-6.2 22.4-6.2 32.2 0l390.3 248c16.7 10.6 29 24.8 35.5 41.1 6.5 16 7.3 33.4 2.5 50.2-11.6 39.5-51.3 66.2-98.8 66.2zM512 534.3L137.8 772c-7.5 4.8-15.8 12.9-12.6 23.9 3.2 11.1 17.4 23 41.1 23h691.4c23.7 0 37.9-12 41.1-23 3.2-11.1-5.1-19.1-12.6-23.9L512 534.3z" /></svg>