<?xml version="1.0" standalone="no"?><!DOCTYPE svg PUBLIC "-//W3C//DTD SVG 1.1//EN" "http://www.w3.org/Graphics/SVG/1.1/DTD/svg11.dtd"><svg class="icon" width="33px" height="33.00px" viewBox="0 0 1024 1024" version="1.1" xmlns="http://www.w3.org/2000/svg"><path fill="#000" d="M503.812094 0c144.823588 0 262.012994 114.630685 262.012993 255.872064s-117.189405 255.872064-262.012993 255.872064-262.012994-114.630685-262.012994-255.872064 117.189405-255.872064 262.012994-255.872064z"  /><path fill="#000" d="M503.812094 0c144.823588 0 262.012994 114.630685 262.012993 255.872064s-117.189405 255.872064-262.012993 255.872064-262.012994-114.630685-262.012994-255.872064 117.189405-255.872064 262.012994-255.872064zM405.557221 597.205397h218.514743c186.786607 0 338.774613 147.894053 338.774613 330.586707v21.493253c0 72.155922-151.476262 74.714643-338.774613 74.714643h-218.514743c-186.786607 0-338.774613 0-338.774612-74.714643v-21.493253c0-182.692654 151.476262-330.586707 338.774612-330.586707z"  /></svg>