<?xml version="1.0" standalone="no"?><!DOCTYPE svg PUBLIC "-//W3C//DTD SVG 1.1//EN" "http://www.w3.org/Graphics/SVG/1.1/DTD/svg11.dtd"><svg t="1534295744897" class="icon" style="" viewBox="0 0 1024 1024" version="1.1" xmlns="http://www.w3.org/2000/svg" p-id="2243" xmlns:xlink="http://www.w3.org/1999/xlink" width="28" height="28"><defs><style type="text/css"></style></defs><path d="M458 758.3c-80.2 0-155.6-31.2-212.3-87.9-56.7-56.7-87.9-132.1-87.9-212.3 0-80.2 31.2-155.6 87.9-212.3 56.7-56.7 132.1-87.9 212.3-87.9 80.2 0 155.6 31.2 212.3 87.9 56.7 56.7 87.9 132.1 87.9 212.3 0 80.2-31.2 155.6-87.9 212.3S538.2 758.3 458 758.3z m0-540.4c-64.2 0-124.5 25-169.9 70.4-45.4 45.4-70.4 105.7-70.4 169.9s25 124.5 70.4 169.9c45.4 45.4 105.7 70.4 169.9 70.4s124.5-25 169.9-70.4 70.4-105.7 70.4-169.9-25-124.5-70.4-169.9c-45.4-45.5-105.7-70.4-169.9-70.4z" fill="#000000" p-id="2244"></path><path d="M833.7 863.8c-7.7 0-15.4-2.9-21.2-8.8l-147-147c-11.7-11.7-11.7-30.7 0-42.4s30.7-11.7 42.4 0l147 147c11.7 11.7 11.7 30.7 0 42.4-5.9 5.8-13.5 8.8-21.2 8.8z" fill="#000000" p-id="2245"></path></svg>