<?xml version="1.0" standalone="no"?><!DOCTYPE svg PUBLIC "-//W3C//DTD SVG 1.1//EN" "http://www.w3.org/Graphics/SVG/1.1/DTD/svg11.dtd"><svg class="icon" width="20px" height="20.00px" viewBox="0 0 1024 1024" version="1.1" xmlns="http://www.w3.org/2000/svg"><path fill="#515151" d="M222.6432 836.2752l-1.9456-195.4048L127.3088 640.8704c-40.3456 0-73.1904-32.8448-73.1904-73.1904L54.1184 181.2224c0-40.3456 32.8448-73.1904 73.1904-73.1904l605.6704 0c40.3456 0 73.1904 32.8448 73.1904 73.1904l0 386.4576c0 40.3456-32.8448 73.1904-73.1904 73.1904L422.9888 640.8704 222.6432 836.2752zM898.3296 265.8304 831.744 265.8304l0 332.032c0 40.3456-32.8448 73.1904-73.1904 73.1904L448.5888 671.0528l-62.4128 60.8768 226.6112 0 180.9664 189.8752 0-189.8752 104.576 0c40.3456 0 73.1904-32.8448 73.1904-73.1904l0-319.744C971.52 298.6752 938.6752 265.8304 898.3296 265.8304z" /></svg>